<mxfile host="Electron" agent="Mozilla/5.0" version="28.1.2">
  <diagram name="Component Diagram - Working Logic" id="component-diagram-working">
    <mxGraphModel dx="2000" dy="1200" grid="1" gridSize="10" guides="1" tooltips="1" connect="1" arrows="1" fold="1" page="1" pageScale="1" pageWidth="2000" pageHeight="1400" math="0" shadow="0">
      <root>
        <mxCell id="0" />
        <mxCell id="1" parent="0" />
        
        <!-- Title -->
        <mxCell id="title-working" value="ตัวอย่าง Working Logic Subsystem (3 Roles: Customer / Employee / Admin)" style="text;html=1;strokeColor=none;fillColor=none;align=left;verticalAlign=middle;whiteSpace=wrap;rounded=0;fontSize=24;fontStyle=1;fontColor=#D32F2F;" vertex="1" parent="1">
          <mxGeometry x="40" y="20" width="900" height="40" as="geometry" />
        </mxCell>
        
        <!-- ROLE 1: CUSTOMER (TOP SECTION) -->
        <mxCell id="title-customer" value="Role 1: Customer" style="text;html=1;strokeColor=#82b366;fillColor=#d5e8d4;align=center;verticalAlign=middle;whiteSpace=wrap;rounded=1;fontSize=16;fontStyle=1;" vertex="1" parent="1">
          <mxGeometry x="40" y="80" width="200" height="30" as="geometry" />
        </mxCell>
        
        <!-- LEFT COLUMN: Customer Servlets -->
        
        <!-- LoginServlet -->
        <mxCell id="login-servlet" value="LoginServlet.java" style="shape=module;align=left;spacingLeft=20;align=center;verticalAlign=top;whiteSpace=wrap;html=1;fillColor=#d5e8d4;strokeColor=#82b366;" vertex="1" parent="1">
          <mxGeometry x="40" y="130" width="140" height="50" as="geometry" />
        </mxCell>
        
        <!-- RegisterServlet -->
        <mxCell id="register-servlet" value="RegisterServlet.java" style="shape=module;align=left;spacingLeft=20;align=center;verticalAlign=top;whiteSpace=wrap;html=1;fillColor=#d5e8d4;strokeColor=#82b366;" vertex="1" parent="1">
          <mxGeometry x="40" y="200" width="140" height="50" as="geometry" />
        </mxCell>
        
        <!-- DashboardServlet -->
        <mxCell id="dashboard-servlet" value="DashboardServlet.java" style="shape=module;align=left;spacingLeft=20;align=center;verticalAlign=top;whiteSpace=wrap;html=1;fillColor=#d5e8d4;strokeColor=#82b366;" vertex="1" parent="1">
          <mxGeometry x="40" y="270" width="160" height="50" as="geometry" />
        </mxCell>
        
        <!-- FieldServlet -->
        <mxCell id="field-servlet" value="FieldServlet.java" style="shape=module;align=left;spacingLeft=20;align=center;verticalAlign=top;whiteSpace=wrap;html=1;fillColor=#d5e8d4;strokeColor=#82b366;" vertex="1" parent="1">
          <mxGeometry x="40" y="340" width="140" height="50" as="geometry" />
        </mxCell>
        
        <!-- FieldDetailServlet -->
        <mxCell id="field-detail-servlet" value="FieldDetailServlet.java" style="shape=module;align=left;spacingLeft=20;align=center;verticalAlign=top;whiteSpace=wrap;html=1;fillColor=#d5e8d4;strokeColor=#82b366;" vertex="1" parent="1">
          <mxGeometry x="40" y="410" width="160" height="50" as="geometry" />
        </mxCell>
        
        <!-- BookingServlet -->
        <mxCell id="booking-servlet" value="BookingServlet.java" style="shape=module;align=left;spacingLeft=20;align=center;verticalAlign=top;whiteSpace=wrap;html=1;fillColor=#d5e8d4;strokeColor=#82b366;" vertex="1" parent="1">
          <mxGeometry x="40" y="480" width="150" height="50" as="geometry" />
        </mxCell>
        
        <!-- BookingHistoryServlet -->
        <mxCell id="booking-history-servlet" value="BookingHistoryServlet.java" style="shape=module;align=left;spacingLeft=20;align=center;verticalAlign=top;whiteSpace=wrap;html=1;fillColor=#d5e8d4;strokeColor=#82b366;" vertex="1" parent="1">
          <mxGeometry x="40" y="550" width="180" height="50" as="geometry" />
        </mxCell>
        
        <!-- PaymentServlet -->
        <mxCell id="payment-servlet" value="PaymentServlet.java" style="shape=module;align=left;spacingLeft=20;align=center;verticalAlign=top;whiteSpace=wrap;html=1;fillColor=#d5e8d4;strokeColor=#82b366;" vertex="1" parent="1">
          <mxGeometry x="40" y="620" width="150" height="50" as="geometry" />
        </mxCell>
        
        <!-- ROLE 2: EMPLOYEE (MIDDLE SECTION) -->
        <mxCell id="title-employee" value="Role 2: Employee" style="text;html=1;strokeColor=#d6b656;fillColor=#fff2cc;align=center;verticalAlign=middle;whiteSpace=wrap;rounded=1;fontSize=16;fontStyle=1;" vertex="1" parent="1">
          <mxGeometry x="40" y="710" width="200" height="30" as="geometry" />
        </mxCell>
        
        <!-- ManageFieldServlet -->
        <mxCell id="manage-field-servlet" value="ManageFieldServlet.java" style="shape=module;align=left;spacingLeft=20;align=center;verticalAlign=top;whiteSpace=wrap;html=1;fillColor=#fff2cc;strokeColor=#d6b656;" vertex="1" parent="1">
          <mxGeometry x="40" y="760" width="170" height="50" as="geometry" />
        </mxCell>
        
        <!-- LogoutServlet -->
        <mxCell id="logout-servlet" value="LogoutServlet.java" style="shape=module;align=left;spacingLeft=20;align=center;verticalAlign=top;whiteSpace=wrap;html=1;fillColor=#fff2cc;strokeColor=#d6b656;" vertex="1" parent="1">
          <mxGeometry x="40" y="830" width="140" height="50" as="geometry" />
        </mxCell>
        
        <!-- ForgotPasswordServlet -->
        <mxCell id="forgot-password-servlet" value="ForgotPasswordServlet.java" style="shape=module;align=left;spacingLeft=20;align=center;verticalAlign=top;whiteSpace=wrap;html=1;fillColor=#fff2cc;strokeColor=#d6b656;" vertex="1" parent="1">
          <mxGeometry x="40" y="900" width="180" height="50" as="geometry" />
        </mxCell>
        
        <!-- ROLE 3: ADMIN (BOTTOM SECTION) -->
        <mxCell id="title-admin" value="Role 3: Admin" style="text;html=1;strokeColor=#b85450;fillColor=#f8cecc;align=center;verticalAlign=middle;whiteSpace=wrap;rounded=1;fontSize=16;fontStyle=1;" vertex="1" parent="1">
          <mxGeometry x="40" y="990" width="200" height="30" as="geometry" />
        </mxCell>
        
        <!-- AdminServlet -->
        <mxCell id="admin-servlet" value="AdminServlet.java" style="shape=module;align=left;spacingLeft=20;align=center;verticalAlign=top;whiteSpace=wrap;html=1;fillColor=#f8cecc;strokeColor=#b85450;" vertex="1" parent="1">
          <mxGeometry x="40" y="1040" width="140" height="50" as="geometry" />
        </mxCell>
        
        <!-- MIDDLE COLUMN: Main Components (Horizontal) -->
        
        <!-- Customer Component (Role 1) -->
        <mxCell id="customer-component" value="Customer" style="shape=component;align=left;spacingLeft=36;rounded=0;shadow=0;comic=0;labelBackgroundColor=none;strokeWidth=1;fontFamily=Verdana;fontSize=12;html=1;fillColor=#d5e8d4;strokeColor=#82b366;" vertex="1" parent="1">
          <mxGeometry x="300" y="300" width="140" height="60" as="geometry" />
        </mxCell>
        
        <!-- Field Component (Role 1) -->
        <mxCell id="field-component" value="Field" style="shape=component;align=left;spacingLeft=36;rounded=0;shadow=0;comic=0;labelBackgroundColor=none;strokeWidth=1;fontFamily=Verdana;fontSize=12;html=1;fillColor=#d5e8d4;strokeColor=#82b366;" vertex="1" parent="1">
          <mxGeometry x="520" y="300" width="120" height="60" as="geometry" />
        </mxCell>
        
        <!-- Booking Component (Role 1) -->
        <mxCell id="booking-component" value="Booking" style="shape=component;align=left;spacingLeft=36;rounded=0;shadow=0;comic=0;labelBackgroundColor=none;strokeWidth=1;fontFamily=Verdana;fontSize=12;html=1;fillColor=#d5e8d4;strokeColor=#82b366;" vertex="1" parent="1">
          <mxGeometry x="520" y="450" width="120" height="60" as="geometry" />
        </mxCell>
        
        <!-- Account Component (Role 1) -->
        <mxCell id="account-component" value="Account" style="shape=component;align=left;spacingLeft=36;rounded=0;shadow=0;comic=0;labelBackgroundColor=none;strokeWidth=1;fontFamily=Verdana;fontSize=12;html=1;fillColor=#d5e8d4;strokeColor=#82b366;" vertex="1" parent="1">
          <mxGeometry x="300" y="450" width="140" height="60" as="geometry" />
        </mxCell>
        
        <!-- Employee Component (Role 2) -->
        <mxCell id="employee-component" value="Employee" style="shape=component;align=left;spacingLeft=36;rounded=0;shadow=0;comic=0;labelBackgroundColor=none;strokeWidth=1;fontFamily=Verdana;fontSize=12;html=1;fillColor=#fff2cc;strokeColor=#d6b656;" vertex="1" parent="1">
          <mxGeometry x="300" y="820" width="140" height="60" as="geometry" />
        </mxCell>
        
        <!-- Admin Component (Role 3) -->
        <mxCell id="admin-component" value="Admin" style="shape=component;align=left;spacingLeft=36;rounded=0;shadow=0;comic=0;labelBackgroundColor=none;strokeWidth=1;fontFamily=Verdana;fontSize=12;html=1;fillColor=#f8cecc;strokeColor=#b85450;" vertex="1" parent="1">
          <mxGeometry x="300" y="1040" width="140" height="60" as="geometry" />
        </mxCell>
        
        <!-- RIGHT COLUMN: Pages (Horizontal) -->
        
        <!-- index.jsp -->
        <mxCell id="index-php" value="index.jsp" style="shape=module;align=left;spacingLeft=20;align=center;verticalAlign=top;whiteSpace=wrap;html=1;fillColor=#ffffff;strokeColor=#000000;" vertex="1" parent="1">
          <mxGeometry x="760" y="350" width="120" height="50" as="geometry" />
        </mxCell>
        
        <!-- login.jsp -->
        <mxCell id="login-php" value="login.jsp" style="shape=module;align=left;spacingLeft=20;align=center;verticalAlign=top;whiteSpace=wrap;html=1;fillColor=#ffffff;strokeColor=#000000;" vertex="1" parent="1">
          <mxGeometry x="940" y="350" width="120" height="50" as="geometry" />
        </mxCell>
        
        <!-- register.jsp -->
        <mxCell id="register-php" value="register.jsp" style="shape=module;align=left;spacingLeft=20;align=center;verticalAlign=top;whiteSpace=wrap;html=1;fillColor=#ffffff;strokeColor=#000000;" vertex="1" parent="1">
          <mxGeometry x="1120" y="350" width="120" height="50" as="geometry" />
        </mxCell>
        
        <!-- System.exe -->
        <mxCell id="system-exe" value="System.exe" style="shape=module;align=left;spacingLeft=20;align=center;verticalAlign=top;whiteSpace=wrap;html=1;fillColor=#ffffff;strokeColor=#000000;" vertex="1" parent="1">
          <mxGeometry x="1300" y="350" width="120" height="50" as="geometry" />
        </mxCell>
        
        <!-- DAO LAYER -->
        
        <!-- Customer Role DAOs -->
        <mxCell id="user-dao" value="UserDAO.java" style="shape=module;align=left;spacingLeft=20;align=center;verticalAlign=top;whiteSpace=wrap;html=1;fillColor=#d5e8d4;strokeColor=#82b366;" vertex="1" parent="1">
          <mxGeometry x="40" y="700" width="130" height="50" as="geometry" />
        </mxCell>
        
        <mxCell id="field-dao" value="FieldDAO.java" style="shape=module;align=left;spacingLeft=20;align=center;verticalAlign=top;whiteSpace=wrap;html=1;fillColor=#d5e8d4;strokeColor=#82b366;" vertex="1" parent="1">
          <mxGeometry x="200" y="700" width="130" height="50" as="geometry" />
        </mxCell>
        
        <mxCell id="booking-dao" value="BookingDAO.java" style="shape=module;align=left;spacingLeft=20;align=center;verticalAlign=top;whiteSpace=wrap;html=1;fillColor=#d5e8d4;strokeColor=#82b366;" vertex="1" parent="1">
          <mxGeometry x="360" y="700" width="140" height="50" as="geometry" />
        </mxCell>
        
        <mxCell id="payment-dao" value="PaymentDAO.java" style="shape=module;align=left;spacingLeft=20;align=center;verticalAlign=top;whiteSpace=wrap;html=1;fillColor=#d5e8d4;strokeColor=#82b366;" vertex="1" parent="1">
          <mxGeometry x="520" y="700" width="140" height="50" as="geometry" />
        </mxCell>
        
        <!-- Employee Role DAOs -->
        <mxCell id="field-dao-lowercase" value="fieldDAO.java" style="shape=module;align=left;spacingLeft=20;align=center;verticalAlign=top;whiteSpace=wrap;html=1;fillColor=#fff2cc;strokeColor=#d6b656;" vertex="1" parent="1">
          <mxGeometry x="40" y="950" width="130" height="50" as="geometry" />
        </mxCell>
        
        <!-- Admin Role DAOs -->
        <mxCell id="admin-dao" value="AdminDAO.java" style="shape=module;align=left;spacingLeft=20;align=center;verticalAlign=top;whiteSpace=wrap;html=1;fillColor=#f8cecc;strokeColor=#b85450;" vertex="1" parent="1">
          <mxGeometry x="40" y="1150" width="130" height="50" as="geometry" />
        </mxCell>
        
        <!-- CONNECTIONS: Horizontal Flow -->
        
        <!-- Top Row: Customer path -->
        <mxCell id="conn-cust-1" value="" style="endArrow=classic;html=1;exitX=1;exitY=0.5;exitDx=0;exitDy=0;entryX=0;entryY=0.5;entryDx=0;entryDy=0;" edge="1" parent="1" source="login-servlet" target="customer-component">
          <mxGeometry width="50" height="50" relative="1" as="geometry">
            <mxPoint x="400" y="400" as="sourcePoint" />
            <mxPoint x="450" y="350" as="targetPoint" />
            <Array as="points">
              <mxPoint x="250" y="125" />
              <mxPoint x="250" y="275" />
            </Array>
          </mxGeometry>
        </mxCell>
        
        <mxCell id="conn-cust-2" value="" style="endArrow=classic;html=1;exitX=1;exitY=0.5;exitDx=0;exitDy=0;entryX=0;entryY=0.5;entryDx=0;entryDy=0;" edge="1" parent="1" source="register-servlet" target="customer-component">
          <mxGeometry width="50" height="50" relative="1" as="geometry">
            <mxPoint x="400" y="400" as="sourcePoint" />
            <mxPoint x="450" y="350" as="targetPoint" />
            <Array as="points">
              <mxPoint x="250" y="195" />
              <mxPoint x="250" y="275" />
            </Array>
          </mxGeometry>
        </mxCell>
        
        <mxCell id="conn-cust-3" value="" style="endArrow=classic;html=1;exitX=1;exitY=0.5;exitDx=0;exitDy=0;entryX=0;entryY=0.5;entryDx=0;entryDy=0;" edge="1" parent="1" source="dashboard-servlet" target="customer-component">
          <mxGeometry width="50" height="50" relative="1" as="geometry">
            <mxPoint x="400" y="400" as="sourcePoint" />
            <mxPoint x="450" y="350" as="targetPoint" />
            <Array as="points">
              <mxPoint x="250" y="265" />
              <mxPoint x="250" y="275" />
            </Array>
          </mxGeometry>
        </mxCell>
        
        <mxCell id="conn-field-1" value="" style="endArrow=classic;html=1;exitX=1;exitY=0.5;exitDx=0;exitDy=0;entryX=0;entryY=0.5;entryDx=0;entryDy=0;" edge="1" parent="1" source="field-servlet" target="field-component">
          <mxGeometry width="50" height="50" relative="1" as="geometry">
            <mxPoint x="400" y="400" as="sourcePoint" />
            <mxPoint x="450" y="350" as="targetPoint" />
            <Array as="points">
              <mxPoint x="250" y="335" />
              <mxPoint x="250" y="275" />
            </Array>
          </mxGeometry>
        </mxCell>
        
        <mxCell id="conn-booking-1" value="" style="endArrow=classic;html=1;exitX=1;exitY=0.5;exitDx=0;exitDy=0;entryX=0;entryY=0.5;entryDx=0;entryDy=0;" edge="1" parent="1" source="booking-servlet" target="booking-component">
          <mxGeometry width="50" height="50" relative="1" as="geometry">
            <mxPoint x="400" y="400" as="sourcePoint" />
            <mxPoint x="450" y="350" as="targetPoint" />
            <Array as="points">
              <mxPoint x="250" y="405" />
              <mxPoint x="250" y="375" />
            </Array>
          </mxGeometry>
        </mxCell>
        
        <mxCell id="conn-payment-1" value="" style="endArrow=classic;html=1;exitX=1;exitY=0.5;exitDx=0;exitDy=0;entryX=0;entryY=0.5;entryDx=0;entryDy=0;" edge="1" parent="1" source="payment-servlet" target="account-component">
          <mxGeometry width="50" height="50" relative="1" as="geometry">
            <mxPoint x="400" y="400" as="sourcePoint" />
            <mxPoint x="450" y="350" as="targetPoint" />
            <Array as="points">
              <mxPoint x="250" y="475" />
              <mxPoint x="250" y="375" />
            </Array>
          </mxGeometry>
        </mxCell>
        
        <!-- Bottom Row: Employee path -->
        <mxCell id="conn-emp-1" value="" style="endArrow=classic;html=1;exitX=1;exitY=0.5;exitDx=0;exitDy=0;entryX=0;entryY=0.5;entryDx=0;entryDy=0;" edge="1" parent="1" source="admin-servlet" target="employee-component">
          <mxGeometry width="50" height="50" relative="1" as="geometry">
            <mxPoint x="400" y="400" as="sourcePoint" />
            <mxPoint x="450" y="350" as="targetPoint" />
            <Array as="points">
              <mxPoint x="250" y="725" />
              <mxPoint x="250" y="925" />
            </Array>
          </mxGeometry>
        </mxCell>
        
        <mxCell id="conn-emp-2" value="" style="endArrow=classic;html=1;exitX=1;exitY=0.5;exitDx=0;exitDy=0;entryX=0;entryY=0.5;entryDx=0;entryDy=0;" edge="1" parent="1" source="manage-field-servlet" target="employee-component">
          <mxGeometry width="50" height="50" relative="1" as="geometry">
            <mxPoint x="400" y="400" as="sourcePoint" />
            <mxPoint x="450" y="350" as="targetPoint" />
            <Array as="points">
              <mxPoint x="250" y="795" />
              <mxPoint x="250" y="925" />
            </Array>
          </mxGeometry>
        </mxCell>
        
        <mxCell id="conn-emp-3" value="" style="endArrow=classic;html=1;exitX=1;exitY=0.5;exitDx=0;exitDy=0;entryX=0;entryY=0.5;entryDx=0;entryDy=0;" edge="1" parent="1" source="logout-servlet" target="employee-component">
          <mxGeometry width="50" height="50" relative="1" as="geometry">
            <mxPoint x="400" y="400" as="sourcePoint" />
            <mxPoint x="450" y="350" as="targetPoint" />
            <Array as="points">
              <mxPoint x="250" y="865" />
              <mxPoint x="250" y="925" />
            </Array>
          </mxGeometry>
        </mxCell>
        
        <mxCell id="conn-emp-4" value="" style="endArrow=classic;html=1;exitX=1;exitY=0.5;exitDx=0;exitDy=0;entryX=0;entryY=0.5;entryDx=0;entryDy=0;" edge="1" parent="1" source="field-detail-servlet" target="employee-component">
          <mxGeometry width="50" height="50" relative="1" as="geometry">
            <mxPoint x="400" y="400" as="sourcePoint" />
            <mxPoint x="450" y="350" as="targetPoint" />
            <Array as="points">
              <mxPoint x="250" y="935" />
              <mxPoint x="250" y="925" />
            </Array>
          </mxGeometry>
        </mxCell>
        
        <mxCell id="conn-emp-5" value="" style="endArrow=classic;html=1;exitX=1;exitY=0.5;exitDx=0;exitDy=0;entryX=0;entryY=0.5;entryDx=0;entryDy=0;" edge="1" parent="1" source="booking-history-servlet" target="employee-component">
          <mxGeometry width="50" height="50" relative="1" as="geometry">
            <mxPoint x="400" y="400" as="sourcePoint" />
            <mxPoint x="450" y="350" as="targetPoint" />
            <Array as="points">
              <mxPoint x="250" y="1005" />
              <mxPoint x="250" y="925" />
            </Array>
          </mxGeometry>
        </mxCell>
        
        <mxCell id="conn-emp-6" value="" style="endArrow=classic;html=1;exitX=1;exitY=0.5;exitDx=0;exitDy=0;entryX=0;entryY=0.5;entryDx=0;entryDy=0;" edge="1" parent="1" source="forgot-password-servlet" target="employee-component">
          <mxGeometry width="50" height="50" relative="1" as="geometry">
            <mxPoint x="400" y="400" as="sourcePoint" />
            <mxPoint x="450" y="350" as="targetPoint" />
            <Array as="points">
              <mxPoint x="250" y="1075" />
              <mxPoint x="250" y="925" />
            </Array>
          </mxGeometry>
        </mxCell>
        
        <!-- Horizontal main flow: Account -> index -> login -> register -> System -->
        <mxCell id="conn-main-1" value="" style="endArrow=classic;html=1;exitX=1;exitY=0.5;exitDx=0;exitDy=0;entryX=0;entryY=0.5;entryDx=0;entryDy=0;" edge="1" parent="1" source="account-component" target="index-php">
          <mxGeometry width="50" height="50" relative="1" as="geometry">
            <mxPoint x="400" y="400" as="sourcePoint" />
            <mxPoint x="450" y="350" as="targetPoint" />
          </mxGeometry>
        </mxCell>
        
        <mxCell id="conn-main-2" value="" style="endArrow=classic;html=1;exitX=1;exitY=0.5;exitDx=0;exitDy=0;entryX=0;entryY=0.5;entryDx=0;entryDy=0;" edge="1" parent="1" source="index-php" target="login-php">
          <mxGeometry width="50" height="50" relative="1" as="geometry">
            <mxPoint x="400" y="400" as="sourcePoint" />
            <mxPoint x="450" y="350" as="targetPoint" />
          </mxGeometry>
        </mxCell>
        
        <mxCell id="conn-main-3" value="" style="endArrow=classic;html=1;exitX=1;exitY=0.5;exitDx=0;exitDy=0;entryX=0;entryY=0.5;entryDx=0;entryDy=0;" edge="1" parent="1" source="login-php" target="register-php">
          <mxGeometry width="50" height="50" relative="1" as="geometry">
            <mxPoint x="400" y="400" as="sourcePoint" />
            <mxPoint x="450" y="350" as="targetPoint" />
          </mxGeometry>
        </mxCell>
        
        <mxCell id="conn-main-4" value="" style="endArrow=classic;html=1;exitX=1;exitY=0.5;exitDx=0;exitDy=0;entryX=0;entryY=0.5;entryDx=0;entryDy=0;" edge="1" parent="1" source="register-php" target="system-exe">
          <mxGeometry width="50" height="50" relative="1" as="geometry">
            <mxPoint x="400" y="400" as="sourcePoint" />
            <mxPoint x="450" y="350" as="targetPoint" />
          </mxGeometry>
        </mxCell>
        
        <!-- Customer and Employee to index -->
        <mxCell id="conn-cust-to-index" value="" style="endArrow=classic;html=1;exitX=1;exitY=0.5;exitDx=0;exitDy=0;entryX=0;entryY=0.25;entryDx=0;entryDy=0;" edge="1" parent="1" source="customer-component" target="index-php">
          <mxGeometry width="50" height="50" relative="1" as="geometry">
            <mxPoint x="400" y="400" as="sourcePoint" />
            <mxPoint x="450" y="350" as="targetPoint" />
            <Array as="points">
              <mxPoint x="680" y="275" />
              <mxPoint x="680" y="363" />
            </Array>
          </mxGeometry>
        </mxCell>
        
        <mxCell id="conn-emp-to-index" value="" style="endArrow=classic;html=1;exitX=1;exitY=0.5;exitDx=0;exitDy=0;entryX=0;entryY=0.75;entryDx=0;entryDy=0;" edge="1" parent="1" source="employee-component" target="index-php">
          <mxGeometry width="50" height="50" relative="1" as="geometry">
            <mxPoint x="400" y="400" as="sourcePoint" />
            <mxPoint x="450" y="350" as="targetPoint" />
            <Array as="points">
              <mxPoint x="680" y="925" />
              <mxPoint x="680" y="388" />
            </Array>
          </mxGeometry>
        </mxCell>
        
      </root>
    </mxGraphModel>
  </diagram>
</mxfile>